<svg xmlns="http://www.w3.org/2000/svg" width="860" height="450" viewBox="0 0 860 450">
<style>text{font-family:Arial,Helvetica,sans-serif;fill:#172033}.title{font-size:20px;font-weight:700}.label{font-size:14px}.small{font-size:12px;fill:#4b5563}.value{font-size:14px;font-weight:700}.axis{stroke:#9ca3af;stroke-width:1}.grid{stroke:#e5e7eb;stroke-width:1}</style>
<text x="430" y="30" class="title" text-anchor="middle">Effect of Domain Relevance</text>
<line x1="90" y1="365.0" x2="820" y2="365.0" class="grid"/>
<text x="78" y="370.0" class="small" text-anchor="end">0</text>
<line x1="90" y1="305.0" x2="820" y2="305.0" class="grid"/>
<text x="78" y="310.0" class="small" text-anchor="end">20</text>
<line x1="90" y1="245.0" x2="820" y2="245.0" class="grid"/>
<text x="78" y="250.0" class="small" text-anchor="end">40</text>
<line x1="90" y1="185.0" x2="820" y2="185.0" class="grid"/>
<text x="78" y="190.0" class="small" text-anchor="end">60</text>
<line x1="90" y1="125.0" x2="820" y2="125.0" class="grid"/>
<text x="78" y="130.0" class="small" text-anchor="end">80</text>
<line x1="90" y1="65.0" x2="820" y2="65.0" class="grid"/>
<text x="78" y="70.0" class="small" text-anchor="end">100</text>
<rect x="153" y="182.6" width="58" height="182.4" rx="3" fill="#377eb8"/>
<text x="182" y="175.6" class="value" text-anchor="middle">60.8%</text>
<rect x="229" y="172.4" width="58" height="192.6" rx="3" fill="#e68632"/>
<text x="258" y="165.4" class="value" text-anchor="middle">64.2%</text>
<text x="220" y="392" class="label" text-anchor="middle">Block seen</text>
<rect x="388" y="212.6" width="58" height="152.4" rx="3" fill="#377eb8"/>
<text x="417" y="205.6" class="value" text-anchor="middle">50.8%</text>
<rect x="464" y="252.5" width="58" height="112.5" rx="3" fill="#e68632"/>
<text x="493" y="245.5" class="value" text-anchor="middle">37.5%</text>
<text x="455" y="392" class="label" text-anchor="middle">Valid delivery</text>
<rect x="623" y="114.2" width="58" height="250.8" rx="3" fill="#377eb8"/>
<text x="652" y="107.20000000000002" class="value" text-anchor="middle">83.6%</text>
<rect x="699" y="189.8" width="58" height="175.2" rx="3" fill="#e68632"/>
<text x="728" y="182.8" class="value" text-anchor="middle">58.4%</text>
<text x="690" y="392" class="label" text-anchor="middle">Valid | seen</text>
<rect x="275" y="420" width="16" height="12" fill="#377eb8"/>
<text x="298" y="431" class="small" text-anchor="start">Domain-related pairs</text>
<rect x="505" y="420" width="16" height="12" fill="#e68632"/>
<text x="528" y="431" class="small" text-anchor="start">Same atomic tasks on other hosts</text>
</svg>
